<mxfile host="Electron" modified="2023-07-10T11:51:04.298Z" agent="Mozilla/5.0 (Windows NT 10.0; Win64; x64) AppleWebKit/537.36 (KHTML, like Gecko) draw.io/21.6.1 Chrome/112.0.5615.204 Electron/24.6.1 Safari/537.36" etag="aBomEZ0jDcvXpyiTL8SZ" version="21.6.1" type="device">
  <diagram name="Page-1" id="uOjuv3UT27Oi3-JV_voo">
    <mxGraphModel dx="2126" dy="607" grid="1" gridSize="10" guides="1" tooltips="1" connect="1" arrows="1" fold="1" page="1" pageScale="1" pageWidth="850" pageHeight="1100" math="0" shadow="0">
      <root>
        <mxCell id="0" />
        <mxCell id="1" parent="0" />
        <mxCell id="jfn39q6Q7Ayu7ClptRvP-1" value="" style="rounded=0;whiteSpace=wrap;html=1;" parent="1" vertex="1">
          <mxGeometry x="-570" y="40" width="810" height="550" as="geometry" />
        </mxCell>
        <mxCell id="jfn39q6Q7Ayu7ClptRvP-2" value="&lt;font style=&quot;font-size: 21px;&quot;&gt;Header&lt;/font&gt;" style="rounded=0;whiteSpace=wrap;html=1;strokeWidth=3;fillColor=#6a00ff;fontColor=#ffffff;strokeColor=#3700CC;" parent="1" vertex="1">
          <mxGeometry x="-570" y="40" width="810" height="60" as="geometry" />
        </mxCell>
        <mxCell id="jfn39q6Q7Ayu7ClptRvP-3" value="Profile Card" style="rounded=0;whiteSpace=wrap;html=1;fillColor=#1ba1e2;fontColor=#ffffff;strokeColor=#006EAF;" parent="1" vertex="1">
          <mxGeometry x="-550" y="110" width="180" height="140" as="geometry" />
        </mxCell>
        <mxCell id="jfn39q6Q7Ayu7ClptRvP-4" value="Recent Card" style="rounded=0;whiteSpace=wrap;html=1;fillColor=#ffe6cc;strokeColor=#d79b00;" parent="1" vertex="1">
          <mxGeometry x="-550" y="260" width="180" height="220" as="geometry" />
        </mxCell>
        <mxCell id="jfn39q6Q7Ayu7ClptRvP-5" value="Share A Post Card" style="rounded=0;whiteSpace=wrap;html=1;fillColor=#0050ef;fontColor=#ffffff;strokeColor=#001DBC;" parent="1" vertex="1">
          <mxGeometry x="-340" y="110" width="340" height="60" as="geometry" />
        </mxCell>
        <mxCell id="jfn39q6Q7Ayu7ClptRvP-7" value="" style="endArrow=none;html=1;rounded=0;" parent="1" target="jfn39q6Q7Ayu7ClptRvP-8" edge="1">
          <mxGeometry width="50" height="50" relative="1" as="geometry">
            <mxPoint x="-340" y="190" as="sourcePoint" />
            <mxPoint x="-60" y="190" as="targetPoint" />
          </mxGeometry>
        </mxCell>
        <mxCell id="jfn39q6Q7Ayu7ClptRvP-8" value="Sort By" style="rounded=0;whiteSpace=wrap;html=1;" parent="1" vertex="1">
          <mxGeometry x="-120" y="180" width="120" height="20" as="geometry" />
        </mxCell>
        <mxCell id="jfn39q6Q7Ayu7ClptRvP-46" value="" style="edgeStyle=orthogonalEdgeStyle;rounded=0;orthogonalLoop=1;jettySize=auto;html=1;" parent="1" source="jfn39q6Q7Ayu7ClptRvP-9" target="jfn39q6Q7Ayu7ClptRvP-45" edge="1">
          <mxGeometry relative="1" as="geometry" />
        </mxCell>
        <mxCell id="jfn39q6Q7Ayu7ClptRvP-9" value="LinkedIn News card" style="rounded=0;whiteSpace=wrap;html=1;fillColor=#60a917;fontColor=#ffffff;strokeColor=#2D7600;" parent="1" vertex="1">
          <mxGeometry x="20" y="110" width="190" height="230" as="geometry" />
        </mxCell>
        <mxCell id="jfn39q6Q7Ayu7ClptRvP-35" value="" style="edgeStyle=orthogonalEdgeStyle;rounded=0;orthogonalLoop=1;jettySize=auto;html=1;" parent="1" source="jfn39q6Q7Ayu7ClptRvP-10" target="jfn39q6Q7Ayu7ClptRvP-34" edge="1">
          <mxGeometry relative="1" as="geometry" />
        </mxCell>
        <mxCell id="jfn39q6Q7Ayu7ClptRvP-10" value="About Card" style="rounded=0;whiteSpace=wrap;html=1;fillColor=#d80073;fontColor=#ffffff;strokeColor=#A50040;" parent="1" vertex="1">
          <mxGeometry x="20" y="360" width="190" height="100" as="geometry" />
        </mxCell>
        <mxCell id="jfn39q6Q7Ayu7ClptRvP-11" value="Feed Card" style="rounded=0;whiteSpace=wrap;html=1;fillColor=#f0a30a;fontColor=#000000;strokeColor=#BD7000;" parent="1" vertex="1">
          <mxGeometry x="-340" y="210" width="340" height="370" as="geometry" />
        </mxCell>
        <mxCell id="jfn39q6Q7Ayu7ClptRvP-14" value="" style="edgeStyle=orthogonalEdgeStyle;rounded=0;orthogonalLoop=1;jettySize=auto;html=1;exitX=0.5;exitY=1;exitDx=0;exitDy=0;entryX=0;entryY=0.5;entryDx=0;entryDy=0;" parent="1" source="jfn39q6Q7Ayu7ClptRvP-12" target="jfn39q6Q7Ayu7ClptRvP-13" edge="1">
          <mxGeometry relative="1" as="geometry">
            <mxPoint y="740" as="sourcePoint" />
            <mxPoint x="295" y="890" as="targetPoint" />
          </mxGeometry>
        </mxCell>
        <mxCell id="jfn39q6Q7Ayu7ClptRvP-12" value="Messaging Card" style="rounded=0;whiteSpace=wrap;html=1;fillColor=#e1d5e7;strokeColor=#9673a6;" parent="1" vertex="1">
          <mxGeometry x="80" y="560" width="160" height="30" as="geometry" />
        </mxCell>
        <mxCell id="jfn39q6Q7Ayu7ClptRvP-28" value="" style="edgeStyle=orthogonalEdgeStyle;rounded=0;orthogonalLoop=1;jettySize=auto;html=1;" parent="1" source="jfn39q6Q7Ayu7ClptRvP-13" target="jfn39q6Q7Ayu7ClptRvP-27" edge="1">
          <mxGeometry relative="1" as="geometry" />
        </mxCell>
        <mxCell id="jfn39q6Q7Ayu7ClptRvP-13" value="" style="whiteSpace=wrap;html=1;fillColor=#e1d5e7;strokeColor=#9673a6;rounded=0;" parent="1" vertex="1">
          <mxGeometry x="340" y="725" width="390" height="60" as="geometry" />
        </mxCell>
        <mxCell id="jfn39q6Q7Ayu7ClptRvP-31" value="" style="edgeStyle=orthogonalEdgeStyle;rounded=0;orthogonalLoop=1;jettySize=auto;html=1;" parent="1" source="jfn39q6Q7Ayu7ClptRvP-19" target="jfn39q6Q7Ayu7ClptRvP-30" edge="1">
          <mxGeometry relative="1" as="geometry" />
        </mxCell>
        <mxCell id="jfn39q6Q7Ayu7ClptRvP-19" value="" style="rounded=0;whiteSpace=wrap;html=1;" parent="1" vertex="1">
          <mxGeometry x="350" y="730" width="150" height="50" as="geometry" />
        </mxCell>
        <mxCell id="jfn39q6Q7Ayu7ClptRvP-16" value="IMG" style="ellipse;whiteSpace=wrap;html=1;aspect=fixed;" parent="1" vertex="1">
          <mxGeometry x="355" y="735" width="40" height="40" as="geometry" />
        </mxCell>
        <mxCell id="jfn39q6Q7Ayu7ClptRvP-17" value="" style="ellipse;whiteSpace=wrap;html=1;aspect=fixed;fillColor=#008a00;fontColor=#ffffff;strokeColor=#005700;" parent="1" vertex="1">
          <mxGeometry x="380" y="765" width="10" height="10" as="geometry" />
        </mxCell>
        <mxCell id="jfn39q6Q7Ayu7ClptRvP-18" value="Messaging" style="rounded=0;whiteSpace=wrap;html=1;" parent="1" vertex="1">
          <mxGeometry x="410" y="737.5" width="80" height="35" as="geometry" />
        </mxCell>
        <mxCell id="jfn39q6Q7Ayu7ClptRvP-33" style="edgeStyle=orthogonalEdgeStyle;rounded=0;orthogonalLoop=1;jettySize=auto;html=1;entryX=0.5;entryY=0;entryDx=0;entryDy=0;" parent="1" source="jfn39q6Q7Ayu7ClptRvP-22" target="jfn39q6Q7Ayu7ClptRvP-32" edge="1">
          <mxGeometry relative="1" as="geometry" />
        </mxCell>
        <mxCell id="jfn39q6Q7Ayu7ClptRvP-22" value="" style="rounded=0;whiteSpace=wrap;html=1;" parent="1" vertex="1">
          <mxGeometry x="570" y="730" width="145" height="50" as="geometry" />
        </mxCell>
        <mxCell id="jfn39q6Q7Ayu7ClptRvP-23" value="" style="rounded=0;whiteSpace=wrap;html=1;" parent="1" vertex="1">
          <mxGeometry x="588.75" y="740" width="30" height="30" as="geometry" />
        </mxCell>
        <mxCell id="jfn39q6Q7Ayu7ClptRvP-24" value="" style="rounded=0;whiteSpace=wrap;html=1;" parent="1" vertex="1">
          <mxGeometry x="630" y="740" width="30" height="30" as="geometry" />
        </mxCell>
        <mxCell id="jfn39q6Q7Ayu7ClptRvP-25" value="" style="rounded=0;whiteSpace=wrap;html=1;" parent="1" vertex="1">
          <mxGeometry x="670" y="740" width="30" height="30" as="geometry" />
        </mxCell>
        <mxCell id="jfn39q6Q7Ayu7ClptRvP-27" value="CSS:&lt;br&gt;Display: flex;&lt;br&gt;align-item: center;&lt;br&gt;justify-content: Space Between&lt;br&gt;position:absolute" style="whiteSpace=wrap;html=1;fillColor=#e1d5e7;strokeColor=#9673a6;rounded=0;" parent="1" vertex="1">
          <mxGeometry x="451.25" y="590" width="208.75" height="90" as="geometry" />
        </mxCell>
        <mxCell id="jfn39q6Q7Ayu7ClptRvP-30" value="Display: flex&lt;br&gt;justify-content: Center" style="whiteSpace=wrap;html=1;rounded=0;" parent="1" vertex="1">
          <mxGeometry x="355" y="855" width="120" height="60" as="geometry" />
        </mxCell>
        <mxCell id="jfn39q6Q7Ayu7ClptRvP-32" value="Display: flex&lt;br&gt;justify-content: Center" style="whiteSpace=wrap;html=1;rounded=0;" parent="1" vertex="1">
          <mxGeometry x="595" y="855" width="120" height="60" as="geometry" />
        </mxCell>
        <mxCell id="jfn39q6Q7Ayu7ClptRvP-42" value="" style="edgeStyle=orthogonalEdgeStyle;rounded=0;orthogonalLoop=1;jettySize=auto;html=1;" parent="1" source="jfn39q6Q7Ayu7ClptRvP-34" target="jfn39q6Q7Ayu7ClptRvP-41" edge="1">
          <mxGeometry relative="1" as="geometry">
            <Array as="points">
              <mxPoint x="510" y="320" />
            </Array>
          </mxGeometry>
        </mxCell>
        <mxCell id="jfn39q6Q7Ayu7ClptRvP-34" value="&lt;br&gt;" style="whiteSpace=wrap;html=1;fillColor=#d80073;strokeColor=#A50040;fontColor=#ffffff;rounded=0;" parent="1" vertex="1">
          <mxGeometry x="380" y="400" width="260" height="160" as="geometry" />
        </mxCell>
        <mxCell id="jfn39q6Q7Ayu7ClptRvP-40" value="" style="edgeStyle=orthogonalEdgeStyle;rounded=0;orthogonalLoop=1;jettySize=auto;html=1;" parent="1" source="jfn39q6Q7Ayu7ClptRvP-36" target="jfn39q6Q7Ayu7ClptRvP-39" edge="1">
          <mxGeometry relative="1" as="geometry" />
        </mxCell>
        <mxCell id="jfn39q6Q7Ayu7ClptRvP-36" value="Options" style="rounded=0;whiteSpace=wrap;html=1;" parent="1" vertex="1">
          <mxGeometry x="390" y="410" width="240" height="100" as="geometry" />
        </mxCell>
        <mxCell id="jfn39q6Q7Ayu7ClptRvP-37" value="LinkedIn logo and text" style="rounded=0;whiteSpace=wrap;html=1;" parent="1" vertex="1">
          <mxGeometry x="390" y="520" width="240" height="30" as="geometry" />
        </mxCell>
        <mxCell id="jfn39q6Q7Ayu7ClptRvP-39" value="display: flex;&lt;br&gt;flex-wrap:wrap;&lt;br&gt;width height to be specified&lt;br&gt;" style="whiteSpace=wrap;html=1;rounded=0;" parent="1" vertex="1">
          <mxGeometry x="690" y="430" width="120" height="60" as="geometry" />
        </mxCell>
        <mxCell id="jfn39q6Q7Ayu7ClptRvP-41" value="display: flex;&lt;br&gt;flex-direction: column;&lt;br&gt;position: sticky;" style="whiteSpace=wrap;html=1;fillColor=#d80073;strokeColor=#A50040;fontColor=#ffffff;rounded=0;" parent="1" vertex="1">
          <mxGeometry x="620" y="290" width="140" height="90" as="geometry" />
        </mxCell>
        <mxCell id="jfn39q6Q7Ayu7ClptRvP-48" value="" style="edgeStyle=orthogonalEdgeStyle;rounded=0;orthogonalLoop=1;jettySize=auto;html=1;" parent="1" source="jfn39q6Q7Ayu7ClptRvP-45" target="jfn39q6Q7Ayu7ClptRvP-47" edge="1">
          <mxGeometry relative="1" as="geometry" />
        </mxCell>
        <mxCell id="jfn39q6Q7Ayu7ClptRvP-45" value="&lt;h2&gt;&lt;br&gt;&lt;/h2&gt;" style="rounded=0;whiteSpace=wrap;html=1;fillColor=#60a917;fontColor=#ffffff;strokeColor=#2D7600;align=left;" parent="1" vertex="1">
          <mxGeometry x="475" y="20" width="190" height="230" as="geometry" />
        </mxCell>
        <mxCell id="jfn39q6Q7Ayu7ClptRvP-47" value="Display: flex;&lt;br&gt;flex-direction: column;" style="whiteSpace=wrap;html=1;fillColor=#60a917;strokeColor=#2D7600;fontColor=#ffffff;rounded=0;" parent="1" vertex="1">
          <mxGeometry x="730" y="50" width="140" height="115" as="geometry" />
        </mxCell>
        <mxCell id="jfn39q6Q7Ayu7ClptRvP-49" value="&lt;h2 style=&quot;border-color: var(--border-color); text-align: left;&quot;&gt;&lt;font style=&quot;border-color: var(--border-color); background-color: rgb(255, 255, 255);&quot; face=&quot;Lucida Console&quot;&gt;Unordered list with title as LinkedIn News and list items as news&lt;/font&gt;&lt;/h2&gt;" style="rounded=0;whiteSpace=wrap;html=1;" parent="1" vertex="1">
          <mxGeometry x="480" y="30" width="180" height="160" as="geometry" />
        </mxCell>
        <mxCell id="jfn39q6Q7Ayu7ClptRvP-54" style="edgeStyle=orthogonalEdgeStyle;rounded=0;orthogonalLoop=1;jettySize=auto;html=1;" parent="1" source="jfn39q6Q7Ayu7ClptRvP-50" target="jfn39q6Q7Ayu7ClptRvP-55" edge="1">
          <mxGeometry relative="1" as="geometry">
            <mxPoint x="730" y="220" as="targetPoint" />
          </mxGeometry>
        </mxCell>
        <mxCell id="jfn39q6Q7Ayu7ClptRvP-50" value="Show more button" style="rounded=0;whiteSpace=wrap;html=1;" parent="1" vertex="1">
          <mxGeometry x="480" y="200" width="110" height="40" as="geometry" />
        </mxCell>
        <mxCell id="jfn39q6Q7Ayu7ClptRvP-55" value="background-color&lt;br&gt;down arrow" style="rounded=0;whiteSpace=wrap;html=1;" parent="1" vertex="1">
          <mxGeometry x="760" y="190" width="120" height="60" as="geometry" />
        </mxCell>
      </root>
    </mxGraphModel>
  </diagram>
</mxfile>
